{
    "asset" : {
        "generator" : "Khronos glTF Blender I/O v1.4.40",
        "version" : "2.0"
    },
    "scene" : 0,
    "scenes" : [
        {
            "name" : "Scene",
            "nodes" : [
                0
            ]
        }
    ],
    "nodes" : [
        {
            "mesh" : 0,
            "name" : "Plane",
            "rotation" : [
                0.7078016996383667,
                0.001527627231553197,
                -0.0001771364186424762,
                0.7064095139503479
            ],
            "scale" : [
                1,
                1.496219515800476,
                1
            ],
            "translation" : [
                -0.22293329238891602,
                0.029689311981201172,
                0.06144523620605469
            ]
        }
    ],
    "materials" : [
        {
            "doubleSided" : true,
            "emissiveFactor" : [
                0.4999997615814209,
                0,
                0
            ],
            "name" : "REDLIGHT.001",
            "pbrMetallicRoughness" : {}
        }
    ],
    "meshes" : [
        {
            "name" : "Plane.001",
            "primitives" : [
                {
                    "attributes" : {
                        "POSITION" : 0,
                        "NORMAL" : 1,
                        "TEXCOORD_0" : 2
                    },
                    "indices" : 3,
                    "material" : 0
                }
            ]
        }
    ],
    "accessors" : [
        {
            "bufferView" : 0,
            "componentType" : 5126,
            "count" : 72,
            "max" : [
                1.563106656074524,
                0.14661246538162231,
                1.9465289115905762
            ],
            "min" : [
                -0.9527033567428589,
                -0.14661243557929993,
                -2.9619691371917725
            ],
            "type" : "VEC3"
        },
        {
            "bufferView" : 1,
            "componentType" : 5126,
            "count" : 72,
            "type" : "VEC3"
        },
        {
            "bufferView" : 2,
            "componentType" : 5126,
            "count" : 72,
            "type" : "VEC2"
        },
        {
            "bufferView" : 3,
            "componentType" : 5123,
            "count" : 108,
            "type" : "SCALAR"
        }
    ],
    "bufferViews" : [
        {
            "buffer" : 0,
            "byteLength" : 864,
            "byteOffset" : 0
        },
        {
            "buffer" : 0,
            "byteLength" : 864,
            "byteOffset" : 864
        },
        {
            "buffer" : 0,
            "byteLength" : 576,
            "byteOffset" : 1728
        },
        {
            "buffer" : 0,
            "byteLength" : 216,
            "byteOffset" : 2304
        }
    ],
    "buffers" : [
        {
            "byteLength" : 2520,
            "uri" : "data:application/octet-stream;base64,"
        }
    ]
}
